<svg xmlns="http://www.w3.org/2000/svg" viewBox="0 0 48 48">
  <path fill="#000000" d="M32.163,27.969c-0.029-2.892,1.183-5.319,3.642-7.031c-1.381-2.005-3.454-3.106-6.175-3.323 c-2.597-0.211-5.427,1.548-6.477,1.548c-1.097,0-3.688-1.492-6.079-1.492c-3.12,0.043-6.024,1.821-7.636,4.619 c-3.278,5.704-0.84,14.145,2.319,18.764c1.573,2.278,3.425,4.831,5.849,4.745c2.368-0.099,3.257-1.529,6.11-1.529 c2.819,0,3.657,1.529,6.121,1.479c2.535-0.043,4.139-2.296,5.676-4.589c1.003-1.457,1.769-3.075,2.285-4.795 C34.316,35.328,32.195,32.454,32.163,27.969z"/>
  <path fill="#000000" d="M29.148,10.771c1.455-1.773,2.168-4.037,1.922-6.339c-1.861,0.092-3.611,0.871-5.011,2.242 c-1.372,1.338-2.147,3.166-2.147,5.124c1.928,0.146,3.75-0.501,5.236-1.027z"/>
</svg> 